<?xml version="1.0" encoding="UTF-8" standalone="no"?>
<!-- Created with Inkscape (http://www.inkscape.org/) -->

<svg
   width="244.7039mm"
   height="119.14766mm"
   viewBox="0 0 244.7039 119.14766"
   version="1.1"
   id="svg350"
   inkscape:version="1.2.2 (b0a8486, 2022-12-01)"
   sodipodi:docname="BenD.svg"
   xmlns:inkscape="http://www.inkscape.org/namespaces/inkscape"
   xmlns:sodipodi="http://sodipodi.sourceforge.net/DTD/sodipodi-0.dtd"
   xmlns="http://www.w3.org/2000/svg"
   xmlns:svg="http://www.w3.org/2000/svg">
  <sodipodi:namedview
     id="namedview352"
     pagecolor="#ffffff"
     bordercolor="#000000"
     borderopacity="0.25"
     inkscape:showpageshadow="2"
     inkscape:pageopacity="0.0"
     inkscape:pagecheckerboard="0"
     inkscape:deskcolor="#d1d1d1"
     inkscape:document-units="mm"
     showgrid="false"
     inkscape:zoom="0.2102413"
     inkscape:cx="829.99867"
     inkscape:cy="894.2106"
     inkscape:window-width="1440"
     inkscape:window-height="770"
     inkscape:window-x="0"
     inkscape:window-y="25"
     inkscape:window-maximized="1"
     inkscape:current-layer="layer1" />
  <defs
     id="defs347" />
  <g
     inkscape:label="Layer 1"
     inkscape:groupmode="layer"
     id="layer1"
     transform="translate(238.13161,88.51875)">
    <path
       id="rect4122"
       style="fill:#57dcbe;fill-opacity:1;stroke:none;stroke-width:5.25225;stroke-linecap:butt;stroke-miterlimit:55.6;stroke-dasharray:none;stroke-opacity:1;paint-order:markers fill stroke"
       d="m -112.63526,-88.51875 -1.12293,0.15141 -1.2237,0.52969 -0.42374,0.0253 -2.14509,-0.22738 -0.11989,0.0656 -2.25981,-0.22737 -1.28313,-0.0543 -1.33687,0.0129 -0.19533,0.47543 -2.31459,-0.20206 -1.62212,0.1385 -0.60927,0.31264 -1.5229,-0.0641 -1.32137,-0.0465 -1.43144,-0.0465 -1.22473,0.0424 -0.15658,0.0899 -2.42827,-0.21859 -1.21388,0.0858 -0.82993,0.13488 -1.52497,-0.11524 -1.39733,-0.0641 -1.29449,0.47853 -0.63924,0.031 -1.93218,-0.063 -1.17874,0.0165 -0.30541,0.22531 -1.23817,-0.17105 -2.49649,-0.10697 -0.92449,0.15607 -1.6893,-0.0811 -0.0351,0.35554 -1.74666,-0.154 -1.43041,-0.16381 -1.40353,-0.12196 -0.96531,-0.0713 -1.95699,-0.12816 -1.04025,0.14573 -0.46043,0.003 -2.02572,-0.11007 -0.5488,-0.0165 -2.04226,-0.1292 -0.89555,-0.003 -1.62212,-0.14314 -1.418,-0.0176 -0.39378,0.65577 -0.57257,-0.0455 -2.63654,-0.15348 -1.33841,-0.0465 -1.33687,0.22531 -1.33171,0.52658 -1.47587,0.25632 -1.20975,0.3545 -1.418,0.17001 -0.93948,0.44339 -1.37769,0.0103 -0.62684,0.0744 -1.98024,-0.15813 -0.33848,0.11937 -1.84795,-0.0238 -1.67225,-0.061 -0.64492,0.52968 -1.94148,-0.0863 0.006,0.23823 -1.77095,-0.0501 -1.46348,-0.14315 -0.51573,-0.0853 -2.43396,-0.14728 -1.11673,0.36277 -1.3379,0.003 -1.24695,0.0382 -1.37821,0.2558 -1.19373,0.10128 -1.1591,0.0997 -1.28571,0.0233 -0.34313,0.0527 -2.11719,-0.16588 -1.19682,-0.0284 -1.32809,-0.0346 0.18449,0.51521 -2.697,-0.0403 -1.31413,-0.031 -1.27899,-0.0181 -0.8201,-0.016 -2.05673,-0.0181 -1.33428,0.25942 -0.84336,0.4439 -1.27744,-0.004 -1.02475,-0.008 -1.5446,-0.0687 -0.74518,-0.003 -2.12028,-0.093 -0.66353,0.22427 -1.56218,-0.0682 -1.47277,0.006 -1.2914,0.11007 0.0114,0.16226 -2.63498,-0.0863 -1.04852,0.0951 0.63717,0.91622 0.93948,1.24179 0.49455,1.47691 -0.33797,1.16324 -0.0351,0.69298 0.33642,1.38079 0.54311,1.13378 0.62116,1.52497 0.0651,1.33842 0.0388,1.33636 -0.0269,1.24747 0.0289,1.06711 0.28061,1.14205 0.47438,1.56632 -0.26044,0.94206 0.34313,1.49758 -0.0351,0.81545 0.46405,1.08263 0.57929,1.30896 0.33642,1.27176 0.19844,0.69298 0.37465,1.93166 0.076,1.48467 -0.30179,1.00562 0.31678,1.27434 0.27285,1.4919 -0.2098,1.21129 -0.0419,0.64544 0.34726,1.46503 0.49661,1.48466 0.0935,1.22577 0.11989,1.0697 0.1881,1.03973 0.3421,1.47485 0.35191,1.78542 -0.9989,1.55494 -1.00614,1.1436 0.0801,1.2175 0.15554,1.24385 0.18759,1.50068 -0.51005,1.11828 0.1726,1.30535 0.1049,1.58181 -1.31051,1.38441 -1.20768,1.23249 0.0698,1.36115 -0.21446,1.22422 -0.0289,1.04386 0.22427,1.49293 -0.5798,1.12242 0.18655,1.35702 0.11679,1.34979 -0.11059,1.19734 0.0863,1.40508 -0.30541,1.23559 -0.16226,0.95963 0.1266,1.52755 -0.15606,0.53899 0.0574,1.96009 0.0548,1.4087 -0.3297,1.14308 0.031,1.26917 -0.0227,1.00407 0.24081,1.40405 0.21239,1.45625 -0.64905,1.15031 0.108,1.29811 0.0238,0.88264 0.25683,1.66295 -0.0387,1.22989 0.046,1.40095 -0.76378,1.11311 0.12609,1.27176 0.0584,1.28726 0.0403,1.09916 0.18759,1.22525 0.22117,1.51101 -0.4439,1.27745 -0.9989,1.27382 -0.0718,0.9927 0.29352,1.66812 -0.6165,1.10588 -0.0269,1.25935 -0.006,1.33894 -0.28319,1.06401 0.23616,1.38855 -0.0351,1.23507 0.0434,1.29759 -0.0341,1.25005 -0.008,1.25678 1.38028,-0.18707 0.12661,-0.21394 2.34456,-0.0362 0.72553,-0.30334 0.70487,-0.32401 1.65675,-0.13436 0.97203,-0.20825 1.07074,-0.18139 1.973,0.42272 0.73174,-0.154 1.36684,0.0811 0.93121,0.0145 2.17248,0.20567 0.70745,-0.17363 1.59215,-0.0579 0.68988,-0.15089 1.77922,0.2067 1.02164,-0.14262 1.3317,0.0842 2.23553,-0.11731 0.20774,-0.0832 1.74769,0.0791 0.91261,-0.15503 0.99994,-0.0723 1.37924,0.0749 2.06706,0.005 1.82831,-0.16536 0.0346,-0.15142 1.2051,-0.0672 1.89601,-0.0429 1.59577,-0.28215 0.13125,-0.10284 1.4795,0.0496 1.27899,-0.0543 1.15497,-0.063 2.02675,-0.0155 1.495,-0.29198 0.75758,-0.11989 0.92294,-0.21239 1.39009,0.5886 0.92759,-0.0951 2.17093,0.0372 0.46561,-0.15658 1.90531,-0.009 0.87695,-0.19379 2.56573,-0.18914 0.66456,-0.1173 0.81132,-0.16795 0.84388,-0.14779 1.05109,-0.0434 1.57303,0.19637 1.2051,-0.0791 1.11776,0.0667 1.56373,0.0512 1.72547,-0.13023 0.71262,-0.1943 1.23765,0.42943 1.91772,0.007 0.89917,-0.15709 1.25212,-0.13591 2.49338,-0.14418 -0.38964,-0.0729 1.28003,0.16226 1.37769,0.0625 1.59629,-0.007 1.47329,-0.14934 0.57464,-0.0708 1.47072,0.14263 1.64899,-0.0155 0.98805,-0.0749 0.98496,-0.046 1.56373,0.26665 1.21749,0.0729 1.28881,0.002 1.30587,-0.009 1.36012,-0.0388 0.88522,-0.0589 1.34462,0.31109 1.61075,0.14108 1.47278,-0.062 2.46807,-0.18397 -0.24857,-0.10387 1.3069,0.0863 1.27641,-0.0393 2.29133,-0.0718 -0.0408,-0.1633 1.70945,0.19895 0.92191,-0.0904 2.019,0.19999 0.72709,-0.0568 1.63814,-0.0455 1.02319,-0.15968 1.49138,-0.0987 1.07797,-0.12454 1.13379,-0.10646 1.92856,-0.0703 0.57051,-0.0739 1.25367,-0.0388 1.44384,0.61133 0.92862,-0.0408 2.47117,0.14004 0.416,-0.0909 1.04799,-0.0687 0.98444,0.0718 1.6924,0.29714 2.20865,-0.0548 0.36691,-0.18655 0.9772,-0.046 1.50585,0.19637 1.07539,-0.0171 2.09289,0.3235 0.63304,-0.18397 2.32182,-0.0315 0.1204,-0.13384 2.01229,0.0413 0.817,-0.0377 2.04794,-0.0868 0.54053,-0.15038 0.97875,-0.0672 1.5658,0.0181 1.27589,-0.0899 0.88263,-0.0997 1.47743,0.34107 1.19631,-0.0367 2.76934,-0.0331 0.0408,-0.0455 0.82889,-0.0786 1.87172,0.1633 0.90744,-0.0713 0.0687,-0.002 c 6.11959,-5.86015 12.69961,-12.0638 19.45255,-18.27382 -8.81951,5.62001 -19.29958,7.85691 -29.06747,7.71632 l 5.2e-4,-0.0186 h -24.88841 V -4.69655 h 25.19433 l 5.2e-4,-0.0207 c 9.00257,0.12956 17.99529,-3.18493 22.6074,-9.18755 l 0.0739,-0.0977 0.0765,-0.0935 c 5.00718,-6.21764 5.13377,-17.07077 0.24185,-23.3283 l -0.0739,-0.0935 -0.0703,-0.0956 c -4.6174,-6.18539 -13.73174,-9.55887 -23.07043,-9.61337 v -0.0109 h -25.00106 V -68.4958 h 25.12405 v -0.03 c 9.92604,0.0579 20.69206,2.4355 29.66227,8.40724 -10.18565,-9.31252 -20.07463,-18.7122 -28.62822,-27.00352 l -0.96945,-0.0956 -0.98857,0.0181 -1.37873,-0.10025 -1.4888,-0.0754 -1.07228,0.13281 -1.2883,-0.0538 -1.52549,-0.0398 -0.87798,0.27699 -0.95808,-0.077 -1.7911,-0.1943 -1.23714,0.0574 -0.9741,-0.0139 -1.02888,-0.10698 -0.35398,-0.11472 -1.65261,-0.0935 -1.36684,-0.0248 -1.22008,-0.11833 -2.12236,-0.15142 -1.11517,-0.0661 -1.1188,-0.11214 -1.41593,-0.10697 -0.73122,-0.0822 -0.84181,-0.12195 z m 36.20089,1.94562 c 9.09473,7.76115 19.17197,16.53612 29.0897,25.53126 0.10913,0.099 0.20802,0.18872 0.31678,0.28732 -3.90088,-9.05385 -7.47407,-17.63493 -10.64587,-25.38191 l -1.5167,-0.18914 -0.22841,0.0729 -2.34611,-0.13746 -1.33015,-0.0351 -1.17151,0.0842 -1.16685,-0.0419 -1.54668,-0.0863 -1.10742,0.19275 -1.26711,0.0284 -1.09037,-0.0232 -1.39733,-0.10852 -1.29139,-0.0563 -1.36323,-0.0501 -0.92139,0.0176 -0.19534,-0.0631 z m 29.9005,0.29094 -1.20199,0.62838 -1.11673,-0.0729 -1.43815,-0.13694 -1.18495,-0.063 -1.3348,-0.0791 -1.22008,-0.0703 -0.17725,-0.0145 h -0.002 c 4.92639,9.94512 10.49291,21.41819 16.03365,33.37884 1.0995,1.0063 2.19318,2.01306 3.28352,3.01997 0.28156,-13.50272 0.7755,-26.00191 1.25005,-36.09961 l -0.015,-0.002 -0.75654,-0.0703 -2.06551,-0.18397 -1.17099,0.005 -1.28002,0.1235 -1.2821,0.0341 -0.63148,-0.004 -1.60507,-0.19689 -1.72238,-0.17622 -0.9679,0.0837 z m 16.33492,0.75757 0.0651,0.12351 -1.15858,-0.1111 c 0.45652,11.14558 0.91801,25.21998 1.09296,40.19238 1.84506,1.72429 3.66372,3.43012 5.45754,5.12785 6.88213,-14.2269 13.22578,-26.69674 17.33693,-34.64957 1.8978,-3.6712 3.32074,-6.38283 4.10259,-7.86567 0.15633,-0.29648 0.22848,-0.43284 0.33228,-0.6289 l -0.38602,-0.063 -1.60094,-0.30748 -0.78806,-0.0336 -1.20716,-0.23978 -1.4671,-0.2961 -1.67432,-0.28474 -0.81028,0.38757 -1.43661,-0.2036 -0.35088,0.006 -1.89549,-0.1478 -1.72134,-0.16846 -1.4025,-0.0227 -0.17053,0.28216 -2.28875,-0.1664 -0.25167,0.093 -1.6092,-0.22685 -0.7891,-0.13746 -0.86455,-0.15193 -2.06447,-0.10852 -1.43971,-0.15348 -1.53375,-0.13591 z m 27.32288,2.20452 c -0.0799,0.21075 -0.13798,0.36386 -0.26148,0.68781 -0.59715,1.56638 -1.69376,4.42542 -3.19722,8.27495 -3.35659,8.59443 -8.76083,22.15414 -15.1474,37.25974 3.15162,3.0039 6.18865,5.92455 9.07955,8.73074 4.88989,-4.13481 9.2114,-7.73052 13.15062,-10.98641 l 0.11679,-0.64389 0.0294,-1.24334 -0.0574,-1.44125 0.19637,-1.06712 -0.0512,-1.29346 0.0476,-1.37304 0.27492,-1.10485 -0.0553,-1.30379 0.0791,-1.44281 0.0615,-0.92914 -0.57877,-1.40457 -0.0972,-1.27537 -0.0424,-1.25884 -0.0455,-1.264 -0.006,-1.35186 0.21033,-1.18701 0.0698,-1.23196 0.008,-1.47485 0.1111,-1.38131 0.39016,-0.92449 0.0377,-1.20355 -0.20102,-1.78748 0.0724,-0.75086 -0.15193,-1.25419 -0.33486,-1.3472 0.0873,-1.55908 0.0506,-1.12861 0.0672,-1.15549 0.0879,-1.02578 -0.70073,-1.41231 -0.28577,-1.16324 -0.36432,-1.35082 -0.0997,-1.54203 0.28681,-1.00769 -0.62787,-1.26607 -1.60869,-0.31729 z m -199.72682,14.82494 h 84.92763 v 20.61217 l 0.19327,0.19327 -0.19327,0.19327 v 0.25942 h -0.25942 l -21.20335,21.20387 21.43745,21.43745 h 0.0961 v 21.25762 h -84.92814 V -4.59571 h 54.6101 l -10.76213,-10.76213 h -21.99917 v 0.0114 h -20.94032 V -36.5746 h 10.78022 v -0.0408 h 32.31482 l 10.62106,-10.62157 h -54.69485 z m 158.21411,16.88269 c 0.30521,0.37755 0.60579,0.7616 0.90072,1.15393 0.9961,1.28093 1.89785,2.61094 2.71508,3.97754 -0.46395,-1.04087 -0.92741,-2.08167 -1.38751,-3.12126 -0.74321,-0.66919 -1.48643,-1.33856 -2.22829,-2.01021 z m 14.25288,12.67157 c 0.007,1.30864 0.014,2.61787 0.016,3.93103 0.4679,1.03909 0.93601,2.07854 1.39939,3.11764 0.66256,-1.39559 1.31217,-2.74132 1.96939,-4.11241 -1.1295,-0.97946 -2.24108,-1.93707 -3.3848,-2.93626 z m -88.40546,0.69092 h 22.10459 v 6.23734 h -22.10459 z m 81.51699,0.0971 c 1.26125,3.96992 1.88831,8.09733 1.88516,12.22509 0.005,-1.70776 0.01,-3.44412 0.014,-5.08186 0.003,-0.97124 0.01,-1.94097 0.0155,-2.91145 -0.0573,-0.1266 -0.1153,-0.25267 -0.1726,-0.3793 -0.56149,-1.24156 -1.16072,-2.5669 -1.74201,-3.85248 z m -56.42601,0.0537 h 22.10407 v 0.0388 h 0.0377 v 24.91941 h -5.53248 v -18.7203 h -10.97659 v 18.7203 h -5.533 v -18.7203 h -0.0997 z m 94.1281,1.726 c -3.19235,3.16468 -6.74903,6.66488 -10.60659,10.41693 6.24281,6.08881 11.53657,11.35655 15.68018,15.51792 l 0.14056,-0.76688 0.30748,-1.2113 -0.31523,-1.44177 0.4992,-1.51619 -1.48157,-1.58284 0.1788,-0.90279 0.15296,-1.29966 -0.16174,-1.24902 0.0114,-1.50327 -0.98806,-1.21853 -0.3669,-1.8216 0.26768,-0.80666 -0.91829,-1.60611 0.12816,-1.02784 0.004,-1.20303 -0.61599,-1.44849 -0.72398,-1.34824 -0.97721,-1.29914 -0.24443,-1.27486 0.0408,-1.2175 z m -23.91844,3.41012 c -0.96208,2.25337 -1.94297,4.52392 -2.9409,6.82129 1.02459,2.3358 2.03576,4.66025 3.0272,6.96237 2.73588,-2.36182 5.42005,-4.66489 8.0114,-6.86728 -2.61681,-2.21808 -5.31828,-4.5235 -8.0977,-6.91638 z m -102.18342,4.08451 h 22.10459 v 6.23734 h -22.10459 z m 90.28337,3.49953 c -0.0524,3.66733 -0.60416,7.32675 -1.64692,10.86755 0.54545,-1.20519 1.09404,-2.40811 1.64382,-3.6096 -0.003,-1.57827 -0.008,-3.15533 -0.004,-4.73563 0.002,-0.86894 0.005,-1.6709 0.007,-2.52232 z m 22.83944,1.73012 c -2.88294,2.79111 -5.93322,5.7106 -9.05526,8.67803 7.01611,16.46203 12.98885,31.43196 16.59537,40.66625 0.79882,2.04536 1.14352,2.95585 1.6986,4.39663 l 1.35186,0.447 1.41231,0.0899 L -0.46588,29.59848 0.09533,28.5541 0.62553,27.91538 1.41669,27.19191 2.22336,26.61675 3.13752,25.11193 2.82023,24.10889 3.38867,23.42728 4.74207,22.04184 4.41961,20.81814 5.17202,19.17276 4.77256,18.08342 5.3348,16.80701 5.3398,15.65928 6.28496,13.90797 5.56046,12.49772 5.52326,10.90143 5.26591,9.22866 4.54037,7.92332 4.98169,6.78179 5.43076,5.33123 4.66853,3.83364 4.40446,2.59238 4.68765,1.35266 4.78842,0.07315 5.09073,-1.16398 5.46331,-2.35512 5.73462,-3.42741 6.01367,-4.71002 6.57229,-6.17866 5.54341,-7.43337 5.654,-8.68704 l 5.2e-4,-0.0527 c -4.66483,-3.81102 -10.85388,-8.92051 -17.95601,-14.90917 z m -16.46566,3.43184 c -0.46867,1.06152 -0.93778,2.12319 -1.4118,3.18688 -0.0109,1.33601 -0.0237,2.66531 -0.0393,3.99562 1.1503,-1.00838 2.28672,-2.00217 3.4246,-2.99206 -0.65587,-1.37906 -1.31469,-2.79104 -1.97352,-4.19044 z m -89.75577,0.71623 h 22.10408 v 6.23735 h -22.10408 z m 93.77878,7.74527 c -1.82625,1.72269 -3.69072,3.46146 -5.56504,5.2064 -0.22347,13.06157 -0.64088,25.53798 -1.07487,36.02984 l 0.28319,0.046 1.47226,0.20102 1.74976,0.0662 1.68466,-0.0408 0.68367,-0.11265 1.25626,-0.0269 1.02164,-0.0636 1.33325,0.0372 1.45831,-0.01 1.00459,-0.0811 1.46813,0.0258 0.72037,-0.0129 2.4846,0.32349 0.38344,-0.11885 2.06551,0.0408 1.54047,-0.1757 0.62115,-0.11007 0.88212,-0.0992 2.05827,0.42943 0.52504,-0.18603 1.67121,0.0114 0.63665,-0.0176 0.41703,0.15451 C -4.61396,28.51272 -4.96656,27.851 -5.83093,26.17892 -10.25255,17.62543 -17.26439,3.81659 -24.74398,-11.75571 Z m -16.55507,7.2409 c -0.7939,1.26196 -1.65699,2.49116 -2.60345,3.67419 0.223,-0.20227 0.46548,-0.42199 0.68678,-0.6227 0.30708,-0.27852 0.61551,-0.55444 0.92294,-0.83251 0.33022,-0.73975 0.66307,-1.47928 0.99373,-2.21898 z m 6.29109,2.32337 c -1.0709,0.98485 -2.14571,1.96743 -3.22409,2.95021 -4.36329,9.49871 -8.77714,18.7402 -12.93668,27.27637 l 1.21698,0.1881 0.98702,0.031 1.62781,0.46147 1.81074,-0.0238 0.3607,-0.13385 2.48409,0.40876 0.12299,-0.108 1.70584,0.25011 0.94826,-0.0186 2.15646,0.108 0.37465,-0.14211 1.36529,0.12971 1.3746,0.17415 0.4439,-0.002 C -34.52195,20.04131 -34.83527,9.25945 -35.00796,-2.19126 Z M -47.22943,8.91863 c -7.10981,6.42563 -14.27413,12.71742 -21.08037,18.59473 l 0.53795,0.008 1.92236,-0.0129 0.84543,-0.0615 0.93276,-0.0884 1.649,0.5333 0.64285,-0.0377 2.4629,0.28887 0.49041,-0.15813 1.33894,-0.0124 1.4614,-0.0398 0.75035,-0.0656 c 2.52208,-6.04922 5.19692,-12.38386 8.04602,-18.94871 z" />
  </g>
</svg>
